<?xml version="1.0" standalone="no"?>
<!DOCTYPE svg PUBLIC "-//W3C//DTD SVG 20010904//EN"
 "http://www.w3.org/TR/2001/REC-SVG-20010904/DTD/svg10.dtd">
<svg version="1.0" xmlns="http://www.w3.org/2000/svg"
 width="302.000000pt" height="302.000000pt" viewBox="0 0 302.000000 302.000000"
 preserveAspectRatio="xMidYMid meet">
<metadata>
Created by potrace 1.11, written by Peter Selinger 2001-2013
</metadata>
<g transform="translate(0.000000,302.000000) scale(0.100000,-0.100000)"
fill="#000000" stroke="none">
<path d="M1437 3014 c-1 -1 -35 -4 -74 -8 -125 -10 -322 -58 -423 -103 -186
-81 -324 -172 -456 -296 -311 -295 -478 -678 -477 -1097 1 -553 289 -1041 778
-1318 299 -169 677 -227 1025 -156 193 39 372 115 549 232 91 60 296 255 350
332 169 241 252 441 292 705 17 113 14 332 -6 445 -67 387 -260 711 -560 945
-266 207 -570 313 -913 319 -46 1 -84 1 -85 0z"/>
</g>
</svg>
